<svg xmlns="http://www.w3.org/2000/svg" width="1500" height="930" viewBox="0 0 1500 930">

<defs>
  <marker id="arrow-orange" markerWidth="18" markerHeight="18" refX="16" refY="9" orient="auto" markerUnits="userSpaceOnUse"><path d="M2,2 L16,9 L2,16 Z" fill="#f59e0b"/></marker>
  <marker id="arrow-red" markerWidth="18" markerHeight="18" refX="16" refY="9" orient="auto" markerUnits="userSpaceOnUse"><path d="M2,2 L16,9 L2,16 Z" fill="#dc2626"/></marker>
  <marker id="arrow-green" markerWidth="18" markerHeight="18" refX="16" refY="9" orient="auto" markerUnits="userSpaceOnUse"><path d="M2,2 L16,9 L2,16 Z" fill="#16a34a"/></marker>
  <marker id="arrow-blue" markerWidth="18" markerHeight="18" refX="16" refY="9" orient="auto" markerUnits="userSpaceOnUse"><path d="M2,2 L16,9 L2,16 Z" fill="#2563eb"/></marker>
  <marker id="arrow-gray" markerWidth="18" markerHeight="18" refX="16" refY="9" orient="auto" markerUnits="userSpaceOnUse"><path d="M2,2 L16,9 L2,16 Z" fill="#64748b"/></marker>
  <style>
    .title{font:700 28px Arial,sans-serif;fill:#0f172a}
    .subtitle{font:400 16px Arial,sans-serif;fill:#475569}
    .label{font:700 17px Arial,sans-serif;fill:#0f172a}
    .small{font:400 14px Arial,sans-serif;fill:#334155}
    .tiny{font:400 12px Arial,sans-serif;fill:#475569}
    .box{fill:#fff;stroke:#cbd5e1;stroke-width:2;rx:16}
    .orange{fill:#fff7ed;stroke:#f59e0b;stroke-width:3;rx:16}
    .red{fill:#fef2f2;stroke:#dc2626;stroke-width:3;rx:16}
    .green{fill:#f0fdf4;stroke:#16a34a;stroke-width:3;rx:16}
    .blue{fill:#eff6ff;stroke:#2563eb;stroke-width:3;rx:16}
    .gray{fill:#f8fafc;stroke:#64748b;stroke-width:2.5;rx:16}
    .pipe-orange{fill:none;stroke:#f59e0b;stroke-width:7;stroke-linecap:round;marker-end:url(#arrow-orange)}
    .pipe-red{fill:none;stroke:#dc2626;stroke-width:7;stroke-linecap:round;marker-end:url(#arrow-red)}
    .pipe-green{fill:none;stroke:#16a34a;stroke-width:7;stroke-linecap:round;marker-end:url(#arrow-green)}
    .pipe-blue{fill:none;stroke:#2563eb;stroke-width:7;stroke-linecap:round;marker-end:url(#arrow-blue)}
    .pipe-gray{fill:none;stroke:#64748b;stroke-width:5;stroke-linecap:round;stroke-dasharray:10 8;marker-end:url(#arrow-gray)}
    .return{stroke-dasharray:12 10;opacity:.8}
  </style>
</defs>

<rect x="0" y="0" width="1500" height="930" fill="#ffffff"/>
<text x="60" y="62" class="title">Schémathèque HelioStock - Solaire direct HT seul</text>
<text x="62" y="94" class="subtitle">Le solaire thermique couvre directement le process haute température.</text>

<rect x="980" y="38" width="440" height="98" class="gray"/>
<text x="1005" y="70" class="label">Convention</text>
<line x1="1005" y1="96" x2="1065" y2="96" stroke="#f59e0b" stroke-width="7" stroke-linecap="round"/><text x="1080" y="101" class="tiny">solaire</text>
<line x1="1005" y1="120" x2="1065" y2="120" stroke="#16a34a" stroke-width="7" stroke-linecap="round"/><text x="1080" y="125" class="tiny">stockage / sondes</text>
<line x1="1210" y1="96" x2="1270" y2="96" stroke="#dc2626" stroke-width="7" stroke-linecap="round"/><text x="1285" y="101" class="tiny">process HT</text>
<line x1="1210" y1="120" x2="1270" y2="120" stroke="#2563eb" stroke-width="7" stroke-linecap="round"/><text x="1285" y="125" class="tiny">PAC / process BT</text>

<rect x="70" y="175" width="270" height="120" class="orange"/><text x="98" y="217" class="label">Champ solaire</text>
<text x="98" y="247" class="small">Capteurs thermiques</text>
<text x="98" y="272" class="small">Production selon EPW</text>
<circle cx="450" cy="235" r="34" fill="#fff7ed" stroke="#f59e0b" stroke-width="3"/><text x="440" y="242" class="label">P</text><text x="405" y="294" class="tiny">Pompe solaire</text>
<rect x="555" y="185" width="245" height="100" class="orange"/><text x="583" y="227" class="label">Échangeur solaire</text>
<text x="583" y="257" class="small">Primaire solaire / eau</text>
<rect x="905" y="185" width="260" height="100" class="orange"/><text x="933" y="227" class="label">Collecteur / régulation</text>
<text x="933" y="257" class="small">Priorité usage direct</text>
<text x="933" y="282" class="small">puis stockage si disponible</text>
<path d="M340 235 L416 235" class="pipe-orange"/>
<path d="M484 235 L555 235" class="pipe-orange"/>
<path d="M800 235 L905 235" class="pipe-orange"/>
<path d="M555 265 C440 345 300 345 185 294" class="pipe-orange return"/>
<rect x="1195" y="185" width="230" height="100" class="gray"/><text x="1223" y="227" class="label">Solaire non valorisé</text>
<text x="1223" y="257" class="small">si besoin nul,</text>
<text x="1223" y="282" class="small">stockage saturé</text>
<path d="M1165 235 L1195 235" class="pipe-gray"/>
<rect x="895" y="360" width="285" height="125" class="red"/><text x="923" y="402" class="label">Batterie air/eau HT</text>
<text x="923" y="432" class="small">Préchauffage air extérieur</text>
<text x="923" y="457" class="small">Air extérieur → 60 °C</text>
<path d="M1035 285 L1035 360" class="pipe-red"/><text x="1010" y="336" class="tiny">Solaire direct prioritaire</text>
<rect x="1240" y="365" width="185" height="115" class="gray"/><text x="1268" y="407" class="label">Appoint HT</text>
<text x="1268" y="437" class="small">si solaire direct</text>
<text x="1268" y="462" class="small">insuffisant</text>
<path d="M1180 422 L1240 422" class="pipe-gray"/>
<rect x="70" y="390" width="380" height="190" class="gray"/>
<text x="98" y="426" class="label">Logique associée au modèle</text>
<text x="98" y="458" class="small">1. Priorité au besoin direct si présent</text>
<text x="98" y="486" class="small">2. Surplus solaire vers stockage si disponible</text>
<text x="98" y="514" class="small">3. PAC BT : chaleur livrée = champ + électricité</text>
<text x="98" y="542" class="small">4. Champ : injection - extraction</text>
<text x="98" y="570" class="small">   puis pertes/recharge naturelle</text>
</svg>