<svg xmlns="http://www.w3.org/2000/svg" width="1750" height="1080" viewBox="0 0 1750 1080">

<defs>
  <marker id="arrow-solar" markerWidth="18" markerHeight="18" refX="16" refY="9" orient="auto" markerUnits="userSpaceOnUse"><path d="M2,2 L16,9 L2,16 Z" fill="#f59e0b"/></marker><marker id="arrow-ht" markerWidth="18" markerHeight="18" refX="16" refY="9" orient="auto" markerUnits="userSpaceOnUse"><path d="M2,2 L16,9 L2,16 Z" fill="#dc2626"/></marker><marker id="arrow-btes" markerWidth="18" markerHeight="18" refX="16" refY="9" orient="auto" markerUnits="userSpaceOnUse"><path d="M2,2 L16,9 L2,16 Z" fill="#16a34a"/></marker><marker id="arrow-bt" markerWidth="18" markerHeight="18" refX="16" refY="9" orient="auto" markerUnits="userSpaceOnUse"><path d="M2,2 L16,9 L2,16 Z" fill="#2563eb"/></marker><marker id="arrow-neutral" markerWidth="18" markerHeight="18" refX="16" refY="9" orient="auto" markerUnits="userSpaceOnUse"><path d="M2,2 L16,9 L2,16 Z" fill="#64748b"/></marker>
  <style>
    .title { font: 700 28px Arial, sans-serif; fill: #0f172a; }
    .subtitle { font: 400 16px Arial, sans-serif; fill: #475569; }
    .label { font: 700 16px Arial, sans-serif; fill: #0f172a; }
    .small { font: 400 13px Arial, sans-serif; fill: #334155; }
    .tiny { font: 400 12px Arial, sans-serif; fill: #475569; }
    .grid { stroke:#e2e8f0; stroke-width:1; }
    .block-shadow { fill:#000000; opacity:0.05; }
  </style>
</defs>

<rect x="0" y="0" width="1750" height="1080" fill="#ffffff"/>
<text x="60" y="62" class="title">Schémathèque HelioStock - PAC géothermique seule</text>
<text x="62" y="94" class="subtitle">Le champ de sondes sert de source à la PAC qui couvre le process basse température.</text>
<rect x="955" y="40" width="470" height="105" rx="8" fill="#f8fafc" stroke="#cbd5e1" stroke-width="2"/>
<text x="977" y="74" class="label">Convention</text>
<line x1="977" y1="102" x2="1037" y2="102" stroke="#f59e0b" stroke-width="7" stroke-linecap="round"/>
<text x="1052" y="107" class="tiny">solaire</text>
<line x1="977" y1="130" x2="1037" y2="130" stroke="#16a34a" stroke-width="7" stroke-linecap="round"/>
<text x="1052" y="135" class="tiny">stockage / sondes</text>
<line x1="1197" y1="102" x2="1257" y2="102" stroke="#dc2626" stroke-width="7" stroke-linecap="round"/>
<text x="1272" y="107" class="tiny">process HT</text>
<line x1="1197" y1="130" x2="1257" y2="130" stroke="#2563eb" stroke-width="7" stroke-linecap="round"/>
<text x="1272" y="135" class="tiny">PAC / process BT</text>
<line x1="70" y1="160" x2="70" y2="1000" class="grid"/>
<line x1="220" y1="160" x2="220" y2="1000" class="grid"/>
<line x1="370" y1="160" x2="370" y2="1000" class="grid"/>
<line x1="520" y1="160" x2="520" y2="1000" class="grid"/>
<line x1="670" y1="160" x2="670" y2="1000" class="grid"/>
<line x1="820" y1="160" x2="820" y2="1000" class="grid"/>
<line x1="970" y1="160" x2="970" y2="1000" class="grid"/>
<line x1="1120" y1="160" x2="1120" y2="1000" class="grid"/>
<line x1="1270" y1="160" x2="1270" y2="1000" class="grid"/>
<line x1="1420" y1="160" x2="1420" y2="1000" class="grid"/>
<line x1="1570" y1="160" x2="1570" y2="1000" class="grid"/>
<line x1="1720" y1="160" x2="1720" y2="1000" class="grid"/>
<line x1="70" y1="160" x2="1720" y2="160" class="grid"/>
<line x1="70" y1="280" x2="1720" y2="280" class="grid"/>
<line x1="70" y1="400" x2="1720" y2="400" class="grid"/>
<line x1="70" y1="520" x2="1720" y2="520" class="grid"/>
<line x1="70" y1="640" x2="1720" y2="640" class="grid"/>
<line x1="70" y1="760" x2="1720" y2="760" class="grid"/>
<line x1="70" y1="880" x2="1720" y2="880" class="grid"/>
<line x1="70" y1="1000" x2="1720" y2="1000" class="grid"/>
<path d="M354.0,811.0 L437.0,811.0 L437.0,826.0 L520.0,826.0" fill="none" stroke="#64748b" stroke-width="7" stroke-linecap="round" stroke-linejoin="round" stroke-dasharray="12 10" marker-end="url(#arrow-neutral)"/>
<path d="M954.0,819.4 L1037.0,819.4 L1037.0,805.9 L1120.0,805.9" fill="none" stroke="#16a34a" stroke-width="7" stroke-linecap="round" stroke-linejoin="round" marker-end="url(#arrow-btes)"/><text x="1045.0" y="795.9" class="tiny">Chaleur extraite</text>
<path d="M1120.0,841.6 L970.0,880.0 L820.0,880.0 L867.2,760.0" fill="none" stroke="#16a34a" stroke-width="7" stroke-linecap="round" stroke-linejoin="round" stroke-dasharray="12 10" marker-end="url(#arrow-btes)"/>
<path d="M1404.0,811.0 L1420.0,811.0" fill="none" stroke="#2563eb" stroke-width="7" stroke-linecap="round" stroke-linejoin="round" marker-end="url(#arrow-bt)"/>
<path d="M1262.0,880.0 L1262.0,862.0" fill="none" stroke="#64748b" stroke-width="7" stroke-linecap="round" stroke-linejoin="round" stroke-dasharray="12 10" marker-end="url(#arrow-neutral)"/>
<path d="M1562.0,862.0 L1491.0,862.0 L1491.0,931.0 L1420.0,931.0" fill="none" stroke="#64748b" stroke-width="7" stroke-linecap="round" stroke-linejoin="round" stroke-dasharray="12 10" marker-end="url(#arrow-neutral)"/>
<rect x="525.0" y="526.0" width="284.0" height="102.0" rx="14" class="block-shadow"/>
<rect x="520.0" y="520.0" width="284.0" height="102.0" rx="14" fill="#f0fdf4" stroke="#16a34a" stroke-width="3"/>
<line x1="746" y1="538" x2="780" y2="596" stroke="#16a34a" stroke-width="4"/><line x1="780" y1="538" x2="746" y2="596" stroke="#16a34a" stroke-width="4"/>
<text x="546" y="560" class="label">Échangeur injection BTES</text>
<text x="546" y="588" class="small">Surplus solaire</text>
<text x="546" y="610" class="small">Tmax champ 40 °C</text>
<rect x="525.0" y="766.0" width="434.0" height="132.0" rx="14" class="block-shadow"/>
<rect x="520.0" y="760.0" width="434.0" height="132.0" rx="14" fill="#f0fdf4" stroke="#16a34a" stroke-width="3"/>
<line x1="558" y1="872.0" x2="558" y2="836" stroke="#16a34a" stroke-width="5" opacity="0.32"/><line x1="592" y1="872.0" x2="592" y2="836" stroke="#16a34a" stroke-width="5" opacity="0.32"/><line x1="626" y1="872.0" x2="626" y2="836" stroke="#16a34a" stroke-width="5" opacity="0.32"/><line x1="660" y1="872.0" x2="660" y2="836" stroke="#16a34a" stroke-width="5" opacity="0.32"/><line x1="694" y1="872.0" x2="694" y2="836" stroke="#16a34a" stroke-width="5" opacity="0.32"/><line x1="728" y1="872.0" x2="728" y2="836" stroke="#16a34a" stroke-width="5" opacity="0.32"/><line x1="762" y1="872.0" x2="762" y2="836" stroke="#16a34a" stroke-width="5" opacity="0.32"/>
<text x="546" y="800" class="label">Champ de sondes BTES</text>
<text x="546" y="828" class="small">Stockage intersaisonnier</text>
<text x="546" y="850" class="small">Estock, Tchamp</text>
<rect x="75.0" y="766.0" width="284.0" height="102.0" rx="14" class="block-shadow"/>
<rect x="70.0" y="760.0" width="284.0" height="102.0" rx="14" fill="#f8fafc" stroke="#64748b" stroke-width="3"/>

<text x="96" y="800" class="label">Échanges avec le sol</text>
<text x="96" y="828" class="small">pertes si chaud</text>
<text x="96" y="850" class="small">recharge si froid</text>
<rect x="1125.0" y="766.0" width="284.0" height="102.0" rx="14" class="block-shadow"/>
<rect x="1120.0" y="760.0" width="284.0" height="102.0" rx="14" fill="#eff6ff" stroke="#2563eb" stroke-width="3"/>
<circle cx="1370" cy="806" r="24" fill="none" stroke="#2563eb" stroke-width="4"/><text x="1359" y="812" class="tiny">PAC</text>
<text x="1146" y="800" class="label">PAC géothermique</text>
<text x="1146" y="828" class="small">COP = f(Tchamp)</text>
<text x="1146" y="850" class="small">Évaporateur sondes</text>
<rect x="1425.0" y="766.0" width="284.0" height="102.0" rx="14" class="block-shadow"/>
<rect x="1420.0" y="760.0" width="284.0" height="102.0" rx="14" fill="#eff6ff" stroke="#2563eb" stroke-width="3"/>
<rect x="1646" y="778" width="42" height="54" fill="none" stroke="#2563eb" stroke-width="4"/><path d="M1654,788 h26 M1654,803 h26 M1654,818 h26" stroke="#2563eb" stroke-width="3"/>
<text x="1446" y="800" class="label">Batterie BT</text>
<text x="1446" y="828" class="small">Préchauffage air</text>
<text x="1446" y="850" class="small">Air ext. → 25 °C</text>
<rect x="1125.0" y="886.0" width="284.0" height="102.0" rx="14" class="block-shadow"/>
<rect x="1120.0" y="880.0" width="284.0" height="102.0" rx="14" fill="#f8fafc" stroke="#64748b" stroke-width="3"/>
<path d="M1368,898 L1352,932 H1370 L1358,960 L1392,920 H1372 Z" fill="#64748b" opacity="0.8"/>
<text x="1146" y="920" class="label">Électricité PAC</text>
<rect x="1425.0" y="886.0" width="284.0" height="102.0" rx="14" class="block-shadow"/>
<rect x="1420.0" y="880.0" width="284.0" height="102.0" rx="14" fill="#f8fafc" stroke="#64748b" stroke-width="3"/>

<text x="1446" y="920" class="label">Appoint BT</text>
<text x="1446" y="948" class="small">si PAC</text>
<text x="1446" y="970" class="small">insuffisante</text>
<rect x="70" y="430" width="390" height="150" rx="12" fill="#f8fafc" stroke="#cbd5e1" stroke-width="2"/>
<text x="96" y="465" class="label">Logique du layout</text>
<text x="96" y="495" class="small">Blocs placés sur grille + ports normalisés</text>
<text x="96" y="521" class="small">Connexions tracées entre ports</text>
<text x="96" y="547" class="small">Variantes générées par configuration</text>
</svg>